<svg xmlns="http://www.w3.org/2000/svg" xmlns:xlink="http://www.w3.org/1999/xlink" version="1.1" x="0px" y="0px" viewBox="0 0 32 40" enable-background="new 0 0 32 32" xml:space="preserve"><g><g><path d="M16,23c3.9,0,7-3.1,7-7V8c0-3.9-3.1-7-7-7S9,4.1,9,8v8C9,19.9,12.1,23,16,23z M11,8c0-2.8,2.2-5,5-5s5,2.2,5,5v8    c0,2.8-2.2,5-5,5s-5-2.2-5-5V8z"/><path d="M27,16c0-0.6-0.4-1-1-1s-1,0.4-1,1c0,5-4,9-9,9s-9-4-9-9c0-0.6-0.4-1-1-1s-1,0.4-1,1c0,5.7,4.4,10.4,10,10.9V30    c0,0.6,0.4,1,1,1s1-0.4,1-1v-3.1C22.6,26.4,27,21.7,27,16z"/></g></g><text x="0" y="47" fill="#000000" font-size="5px" font-weight="bold" font-family="'Helvetica Neue', Helvetica, Arial-Unicode, Arial, Sans-serif">Created by Icon Lauk</text><text x="0" y="52" fill="#000000" font-size="5px" font-weight="bold" font-family="'Helvetica Neue', Helvetica, Arial-Unicode, Arial, Sans-serif">from the Noun Project</text></svg>