<svg xmlns="http://www.w3.org/2000/svg" xmlns:xlink="http://www.w3.org/1999/xlink" version="1.1" x="0px" y="0px" viewBox="0 0 32 40" enable-background="new 0 0 32 32" xml:space="preserve"><g><g><path d="M16,23c3.86,0,7-3.14,7-7V8c0-3.86-3.14-7-7-7S9,4.14,9,8v8C9,19.86,12.14,23,16,23z"/><path d="M27,16c0-0.5522-0.4478-1-1-1s-1,0.4478-1,1c0,4.9629-4.0376,9-9,9s-9-4.0371-9-9c0-0.5522-0.4478-1-1-1s-1,0.4478-1,1    c0,5.7279,4.4021,10.4418,10,10.9493V30c0,0.5527,0.4478,1,1,1s1-0.4473,1-1v-3.0507C22.5979,26.4418,27,21.7279,27,16z"/></g></g><text x="0" y="47" fill="#000000" font-size="5px" font-weight="bold" font-family="'Helvetica Neue', Helvetica, Arial-Unicode, Arial, Sans-serif">Created by Icon Lauk</text><text x="0" y="52" fill="#000000" font-size="5px" font-weight="bold" font-family="'Helvetica Neue', Helvetica, Arial-Unicode, Arial, Sans-serif">from the Noun Project</text></svg>