<svg xmlns="http://www.w3.org/2000/svg" xmlns:xlink="http://www.w3.org/1999/xlink" version="1.1" x="0px" y="0px" viewBox="0 0 32 40" enable-background="new 0 0 32 32" xml:space="preserve"><g><g><path d="M16,1C7.7,1,1,7.7,1,16c0,8.3,6.7,15,15,15s15-6.7,15-15C31,7.7,24.3,1,16,1z M16,29C8.8,29,3,23.2,3,16C3,8.8,8.8,3,16,3    s13,5.8,13,13C29,23.2,23.2,29,16,29z"/><path d="M23.5,15.1l-12-7c-0.3-0.2-0.7-0.2-1,0C10.2,8.3,10,8.6,10,9v14c0,0.4,0.2,0.7,0.5,0.9C10.7,24,10.8,24,11,24    c0.2,0,0.3,0,0.5-0.1l12-7c0.3-0.2,0.5-0.5,0.5-0.9S23.8,15.3,23.5,15.1z M12,21.3V10.7l9,5.3L12,21.3z"/></g></g><text x="0" y="47" fill="#000000" font-size="5px" font-weight="bold" font-family="'Helvetica Neue', Helvetica, Arial-Unicode, Arial, Sans-serif">Created by Icon Lauk</text><text x="0" y="52" fill="#000000" font-size="5px" font-weight="bold" font-family="'Helvetica Neue', Helvetica, Arial-Unicode, Arial, Sans-serif">from the Noun Project</text></svg>