<svg xmlns="http://www.w3.org/2000/svg" xmlns:xlink="http://www.w3.org/1999/xlink" version="1.1" x="0px" y="0px" viewBox="0 0 24 30" enable-background="new 0 0 24 24" xml:space="preserve"><g><g><path d="M12,2C6.4858,2,2,6.4863,2,12s4.4858,10,10,10c5.5137,0,10-4.4863,10-10S17.5137,2,12,2z M12,20c-4.4111,0-8-3.5889-8-8    s3.5889-8,8-8s8,3.5889,8,8S16.4111,20,12,20z"/><path d="M9,7C8.4478,7,8,7.4473,8,8v8c0,0.5527,0.4478,1,1,1s1-0.4473,1-1V8C10,7.4473,9.5522,7,9,7z"/><path d="M15,7c-0.5527,0-1,0.4473-1,1v8c0,0.5527,0.4473,1,1,1s1-0.4473,1-1V8C16,7.4473,15.5527,7,15,7z"/></g></g><text x="0" y="39" fill="#000000" font-size="5px" font-weight="bold" font-family="'Helvetica Neue', Helvetica, Arial-Unicode, Arial, Sans-serif">Created by Icon Lauk</text><text x="0" y="44" fill="#000000" font-size="5px" font-weight="bold" font-family="'Helvetica Neue', Helvetica, Arial-Unicode, Arial, Sans-serif">from the Noun Project</text></svg>